<?xml version="1.0" encoding="UTF-8" standalone="no"?>
<svg
   xmlns:dc="http://purl.org/dc/elements/1.1/"
   xmlns:cc="http://creativecommons.org/ns#"
   xmlns:rdf="http://www.w3.org/1999/02/22-rdf-syntax-ns#"
   xmlns:svg="http://www.w3.org/2000/svg"
   xmlns="http://www.w3.org/2000/svg"
   xmlns:sodipodi="http://sodipodi.sourceforge.net/DTD/sodipodi-0.dtd"
   xmlns:inkscape="http://www.inkscape.org/namespaces/inkscape"
   width="4.5in"
   height="1in"
   viewBox="0 0 114.29999 25.4"
   version="1.1"
   id="svg8"
   inkscape:version="1.0.1 (c497b03c, 2020-09-10)"
   sodipodi:docname="Logo Agile Flag.svg">
  <defs
     id="defs2">
    <rect
       x="-226.48926"
       y="-73.397835"
       width="484.83176"
       height="171.8949"
       id="rect49" />
    <rect
       x="-216.20496"
       y="-108.65833"
       width="659.66504"
       height="265.92288"
       id="rect43" />
    <rect
       x="-157.43747"
       y="-36.668159"
       width="453.97882"
       height="141.04196"
       id="rect37" />
  </defs>
  <sodipodi:namedview
     id="base"
     pagecolor="#ffffff"
     bordercolor="#666666"
     borderopacity="1.0"
     inkscape:pageopacity="0.0"
     inkscape:pageshadow="2"
     inkscape:zoom="1.7860651"
     inkscape:cx="364.34233"
     inkscape:cy="95.709817"
     inkscape:document-units="mm"
     inkscape:current-layer="text34"
     inkscape:document-rotation="0"
     showgrid="false"
     units="in"
     width="9in"
     inkscape:window-width="1280"
     inkscape:window-height="687"
     inkscape:window-x="0"
     inkscape:window-y="23"
     inkscape:window-maximized="0" />
  <metadata
     id="metadata5">
    <rdf:RDF>
      <cc:Work
         rdf:about="">
        <dc:format>image/svg+xml</dc:format>
        <dc:type
           rdf:resource="http://purl.org/dc/dcmitype/StillImage" />
        <dc:title />
      </cc:Work>
    </rdf:RDF>
  </metadata>
  <g
     inkscape:label="Capa 1"
     inkscape:groupmode="layer"
     id="layer1">
    <g
       id="g18"
       transform="matrix(0.26458333,0,0,0.26458333,101.12986,123.20873)">
      <path
         class="st0"
         d="m -150.54411,-422.60743 c 0,1.17 -0.14,2.58 -0.35,3.32 -0.92,-0.11 -1.83,-0.14 -2.93,-0.14 -0.95,0 -1.91,0.07 -2.86,0.21 v 15.11 h -3.88 v -17.66 c 1.66,-0.56 4.45,-0.99 6.64,-0.99 1.19,0 2.53,0.04 3.38,0.15 m -26.06,7.69 h 8.76 c 0,-2.9 -1.55,-4.59 -4.24,-4.59 -2.75,0 -4.2,1.59 -4.52,4.59 m 12.47,3.25 h -12.39 c 0.49,3.14 2.33,4.66 5.79,4.66 2.12,0 4.27,-0.46 6.21,-1.34 -0.14,1.02 -0.35,2.37 -0.6,3.53 -1.76,0.81 -3.64,1.13 -5.72,1.13 -6.5,0 -9.64,-3.6 -9.64,-9.64 0,-5.26 2.44,-9.43 8.61,-9.43 5.54,0 7.95,3.64 7.95,8.09 0,1.09 -0.07,1.98 -0.21,3 m -23.38,3.46 v -10.87 c -1.02,-0.21 -2.08,-0.35 -3.11,-0.35 -3.85,0 -5.68,2.4 -5.68,6.43 0,3.6 1.45,6.14 4.91,6.14 1.55,-0.01 2.82,-0.54 3.88,-1.35 m 3.85,-20.62 v 24.72 h -3.57 l -0.21,-2.26 c -0.99,1.66 -2.51,2.68 -5.05,2.68 -4.66,0 -7.77,-3.39 -7.77,-9.32 0,-6.21 3.32,-9.74 9.85,-9.74 1.02,0 1.98,0.11 2.9,0.28 v -5.83 c 1.2,-0.42 2.58,-0.53 3.85,-0.53 m -19.7,12.85 v 11.86 h -3.88 v -11.19 c 0,-2.79 -0.92,-4.13 -4.8,-4.13 -0.92,0 -2.01,0.11 -3.07,0.28 v 15.04 h -3.88 v -17.65 c 2.47,-0.6 5.19,-0.99 7.06,-0.99 6.48,0 8.57,2.51 8.57,6.78 m -23.77,7.84 v -11.08 c -0.81,-0.14 -1.7,-0.21 -2.79,-0.21 -4.03,0 -5.9,2.47 -5.9,6.43 0,3.6 1.45,6.14 4.91,6.14 1.52,-0.01 2.76,-0.5 3.78,-1.28 m 3.89,-13.63 v 17.65 h -3.57 l -0.21,-2.12 c -0.99,1.55 -2.51,2.54 -4.98,2.54 -4.66,0 -7.77,-3.39 -7.77,-9.32 0,-6.21 3.32,-9.74 9.85,-9.74 2.55,0 4.63,0.29 6.68,0.99 m -20.84,14.76 c 1.13,0 2.19,-0.21 3.04,-0.53 -0.11,1.06 -0.25,2.26 -0.46,3.28 -1.06,0.42 -2.19,0.56 -3.28,0.56 -3.78,0 -6.18,-1.73 -6.18,-6.04 v -18.52 c 1.2,-0.39 2.68,-0.56 3.88,-0.56 v 6.67 h 6.14 c -0.07,1.2 -0.18,2.3 -0.35,3.32 h -5.79 v 8.65 c 0,2.29 1.13,3.17 3,3.17 m -10.77,-8.97 v 11.86 h -3.88 v -11.19 c 0,-2.79 -0.92,-4.13 -4.8,-4.13 -0.92,0 -2.01,0.11 -3.07,0.28 v 15.04 h -3.88 v -17.65 c 2.47,-0.6 5.19,-0.99 7.06,-0.99 6.49,0 8.57,2.51 8.57,6.78 m -23.76,7.84 v -11.08 c -0.81,-0.14 -1.69,-0.21 -2.79,-0.21 -4.02,0 -5.9,2.47 -5.9,6.43 0,3.6 1.45,6.14 4.91,6.14 1.52,-0.01 2.76,-0.5 3.78,-1.28 m 3.88,-13.63 v 17.65 h -3.57 l -0.21,-2.12 c -0.99,1.55 -2.51,2.54 -4.98,2.54 -4.66,0 -7.77,-3.39 -7.77,-9.32 0,-6.21 3.32,-9.74 9.85,-9.74 2.55,0 4.64,0.29 6.68,0.99 m -35.27,16.88 c 0.07,-1.45 0.28,-2.44 0.67,-3.57 1.98,0.92 4.52,1.38 6.46,1.38 3.28,0 5.12,-1.06 5.12,-3.14 0,-2.05 -1.34,-3 -4.66,-4.45 l -1.8,-0.78 c -3.32,-1.45 -5.58,-3.32 -5.58,-7.06 0,-4.02 2.79,-6.6 8.51,-6.6 2.29,0 4.45,0.32 6.46,1.02 -0.11,1.41 -0.35,2.51 -0.71,3.53 -1.91,-0.71 -4.17,-1.02 -5.79,-1.02 -3.07,0 -4.48,1.2 -4.48,3.07 0,1.84 1.38,2.9 3.85,3.96 l 1.91,0.81 c 4.48,1.91 6.36,3.92 6.36,7.34 0,4.06 -3.07,6.85 -9.07,6.85 -2.91,0 -5.27,-0.42 -7.25,-1.34 m -17.75,-17.41 c -0.06,-1.29 -0.42,-2.57 -1.08,-3.72 l -5.89,-10.19 c -0.45,-0.78 -0.76,-1.61 -0.93,-2.47 l -0.25,0.43 c -1.46,2.52 -1.46,5.63 0,8.15 l 4.71,8.16 c 1.46,2.52 1.46,5.63 0,8.16 l -0.25,0.43 c -0.17,-0.85 -0.48,-1.69 -0.93,-2.47 l -4.31,-7.47 -2.75,-4.77 c -0.45,-0.78 -0.76,-1.61 -0.93,-2.47 l -0.25,0.43 c -1.45,2.52 -1.46,5.61 -0.01,8.13 v 0 l 4.72,8.18 c 1.46,2.52 1.46,5.63 0,8.16 l -0.25,0.43 c -0.17,-0.85 -0.48,-1.69 -0.93,-2.47 l -5.89,-10.19 c -0.79,-1.37 -1.15,-2.91 -1.08,-4.43 -6.3,1.65 -10.65,5.14 -10.65,9.19 0,5.63 8.42,10.19 18.8,10.19 10.38,0 18.8,-4.56 18.8,-10.19 0,-4.05 -4.35,-7.55 -10.65,-9.2"
         id="path12" />
      <line
         class="st2"
         x1="-134.16408"
         y1="-436.85748"
         x2="-134.16408"
         y2="-394.90747"
         id="line16" />
      <g
         aria-label="Agile Flags"
         id="text34"
         style="font-style:normal;font-variant:normal;font-weight:bold;font-stretch:normal;font-size:32px;line-height:1.25;font-family:SantanderTextW05-Light;-inkscape-font-specification:'SantanderTextW05-Light Bold';fill:#000000;fill-opacity:1;stroke:none">
        <path
           d="m -105.58453,-411.08961 h -9.632 l -2.016,6.08 h -1.536 l 7.456,-22.048 q 0.288,-0.096 0.832,-0.16 0.544,-0.064 0.992,-0.064 l 7.552,22.272 h -1.632 z m -0.448,-1.408 -4.352,-13.088 -4.352,13.088 z"
           style="font-style:normal;font-variant:normal;font-weight:300;font-stretch:normal;font-size:32px;font-family:SantanderTextW05-Light;-inkscape-font-specification:'SantanderTextW05-Light Light';fill:#93a7ac"
           id="path80" />
        <path
           d="m -92.441032,-421.20161 q 2.912,0 5.12,1.024 v 15.456 q 0,3.456 -1.856,5.152 -1.856,1.728 -5.088,1.728 -2.272,0 -4.224,-0.864 0.064,-0.832 0.16,-1.376 0.928,0.448 1.984,0.672 1.088,0.224 2.048,0.224 2.464,0 3.936,-1.312 1.504,-1.28 1.504,-4.064 v -2.624 q -0.896,1.28 -2.016,1.92 -1.088,0.64 -2.656,0.64 -1.984,0 -3.392,-0.928 -1.408,-0.928 -2.176,-2.72 -0.736,-1.824 -0.736,-4.416 0,-4.16 1.824,-6.336 1.856,-2.176 5.568,-2.176 z m -0.704,15.264 q 1.312,0 2.368,-0.544 1.056,-0.544 1.92,-1.6 v -11.168 q -1.664,-0.64 -3.552,-0.64 -2.976,0 -4.416,1.856 -1.44,1.824 -1.44,5.28 0,3.296 1.312,5.056 1.312,1.76 3.808,1.76 z"
           style="font-style:normal;font-variant:normal;font-weight:300;font-stretch:normal;font-size:32px;font-family:SantanderTextW05-Light;-inkscape-font-specification:'SantanderTextW05-Light Light';fill:#93a7ac"
           id="path82" />
        <path
           d="m -81.071532,-424.97761 q -0.48,0 -0.8,-0.32 -0.288,-0.32 -0.288,-0.832 0,-0.512 0.288,-0.832 0.32,-0.32 0.8,-0.32 0.512,0 0.8,0.32 0.32,0.32 0.32,0.832 0,0.512 -0.32,0.832 -0.288,0.32 -0.8,0.32 z m -0.768,4.16 h 1.536 v 15.808 h -1.536 z"
           style="font-style:normal;font-variant:normal;font-weight:300;font-stretch:normal;font-size:32px;font-family:SantanderTextW05-Light;-inkscape-font-specification:'SantanderTextW05-Light Light';fill:#93a7ac"
           id="path84" />
        <path
           d="m -71.447532,-404.65761 q -1.696,0 -2.624,-0.96 -0.928,-0.96 -0.928,-2.88 v -18.656 q 0.672,-0.256 1.536,-0.256 v 18.784 q 0,1.312 0.608,1.984 0.64,0.672 1.824,0.672 0.928,0 1.792,-0.384 -0.064,0.768 -0.192,1.344 -0.992,0.352 -2.016,0.352 z"
           style="font-style:normal;font-variant:normal;font-weight:300;font-stretch:normal;font-size:32px;font-family:SantanderTextW05-Light;-inkscape-font-specification:'SantanderTextW05-Light Light';fill:#93a7ac"
           id="path86" />
        <path
           d="m -54.818032,-414.16161 q 0,1.152 -0.096,1.632 h -11.136 q 0.128,3.328 1.664,4.96 1.536,1.632 4.224,1.632 1.152,0 2.4,-0.32 1.248,-0.352 2.304,-1.12 -0.032,0.352 -0.096,0.8 -0.064,0.448 -0.16,0.704 -0.96,0.64 -2.144,0.928 -1.184,0.32 -2.368,0.32 -2.368,0 -4.032,-0.96 -1.632,-0.992 -2.496,-2.848 -0.864,-1.888 -0.864,-4.576 0,-2.368 0.736,-4.224 0.736,-1.856 2.208,-2.912 1.504,-1.056 3.744,-1.056 2.016,0 3.392,0.896 1.376,0.896 2.048,2.496 0.672,1.568 0.672,3.648 z m -6.144,-5.728 q -2.336,0 -3.616,1.632 -1.28,1.632 -1.44,4.448 h 9.664 v -0.384 q 0,-2.592 -1.184,-4.128 -1.152,-1.568 -3.424,-1.568 z"
           style="font-style:normal;font-variant:normal;font-weight:300;font-stretch:normal;font-size:32px;font-family:SantanderTextW05-Light;-inkscape-font-specification:'SantanderTextW05-Light Light';fill:#93a7ac"
           id="path88" />
        <path
           d="m -41.796032,-425.71361 v 8.608 h 9.056 q -0.064,0.896 -0.192,1.44 h -8.864 v 10.656 h -1.568 v -22.144 h 11.2 q 0,0.768 -0.192,1.44 z"
           style="font-style:normal;font-variant:normal;font-weight:300;font-stretch:normal;font-size:32px;font-family:SantanderTextW05-Light;-inkscape-font-specification:'SantanderTextW05-Light Light';fill:#93a7ac"
           id="path90" />
        <path
           d="m -25.010032,-404.65761 q -1.696,0 -2.624,-0.96 -0.928,-0.96 -0.928,-2.88 v -18.656 q 0.672,-0.256 1.536,-0.256 v 18.784 q 0,1.312 0.608,1.984 0.64,0.672 1.824,0.672 0.928,0 1.792,-0.384 -0.064,0.768 -0.192,1.344 -0.992,0.352 -2.016,0.352 z"
           style="font-style:normal;font-variant:normal;font-weight:300;font-stretch:normal;font-size:32px;font-family:SantanderTextW05-Light;-inkscape-font-specification:'SantanderTextW05-Light Light';fill:#93a7ac"
           id="path92" />
        <path
           d="m -14.660032,-421.20161 q 2.752,0 4.096,1.248 1.3439998,1.248 1.3439998,3.904 v 11.04 h -1.4399998 l -0.096,-2.4 q -0.736,1.216 -2.112,2.016 -1.344,0.768 -3.104,0.768 -1.504,0 -2.624,-0.544 -1.12,-0.576 -1.728,-1.6 -0.576,-1.024 -0.576,-2.4 0,-1.728 0.896,-2.944 0.896,-1.248 2.976,-1.984 2.112,-0.768 5.632,-1.024 l 0.64,-0.032 v -0.832 q 0,-2.08 -0.992,-2.976 -0.992,-0.928 -3.072,-0.928 -1.536,0 -2.816,0.352 -1.28,0.352 -2.432,0.992 0,-0.48 0.128,-1.376 2.304,-1.28 5.28,-1.28 z m -1.056,15.296 q 1.504,0 2.848,-0.672 1.376,-0.704 2.112,-1.76 v -5.632 l -0.576,0.032 q -3.104,0.256 -4.896,0.896 -1.76,0.608 -2.464,1.536 -0.672,0.928 -0.672,2.24 0,1.504 0.96,2.432 0.96,0.928 2.688,0.928 z"
           style="font-style:normal;font-variant:normal;font-weight:300;font-stretch:normal;font-size:32px;font-family:SantanderTextW05-Light;-inkscape-font-specification:'SantanderTextW05-Light Light';fill:#93a7ac"
           id="path94" />
        <path
           d="m 2.3089678,-421.20161 q 2.912,0 5.12,1.024 v 15.456 q 0,3.456 -1.856,5.152 -1.856,1.728 -5.08799997,1.728 -2.27200003,0 -4.22400003,-0.864 0.064,-0.832 0.16,-1.376 0.928,0.448 1.984,0.672 1.08800003,0.224 2.04800003,0.224 2.46399997,0 3.93599997,-1.312 1.504,-1.28 1.504,-4.064 v -2.624 q -0.896,1.28 -2.016,1.92 -1.088,0.64 -2.656,0.64 -1.98399997,0 -3.392,-0.928 -1.408,-0.928 -2.176,-2.72 -0.736,-1.824 -0.736,-4.416 0,-4.16 1.824,-6.336 1.856,-2.176 5.568,-2.176 z m -0.704,15.264 q 1.312,0 2.368,-0.544 1.056,-0.544 1.92,-1.6 v -11.168 q -1.664,-0.64 -3.552,-0.64 -2.97599997,0 -4.416,1.856 -1.44,1.824 -1.44,5.28 0,3.296 1.312,5.056 1.31200003,1.76 3.808,1.76 z"
           style="font-style:normal;font-variant:normal;font-weight:300;font-stretch:normal;font-size:32px;font-family:SantanderTextW05-Light;-inkscape-font-specification:'SantanderTextW05-Light Light';fill:#93a7ac"
           id="path96" />
        <path
           d="m 16.622468,-404.62561 q -1.28,0 -2.624,-0.32 -1.312,-0.32 -2.272,-0.928 0.032,-0.64 0.256,-1.344 0.992,0.64 2.24,0.96 1.28,0.32 2.336,0.32 1.984,0 3.104,-0.768 1.152,-0.768 1.152,-2.176 0,-1.312 -0.8,-2.048 -0.768,-0.736 -2.56,-1.28 l -1.248,-0.384 q -2.048,-0.608 -3.168,-1.664 -1.088,-1.056 -1.088,-2.848 0,-1.984 1.408,-3.04 1.44,-1.056 3.904,-1.056 2.496,0 4.608,0.8 -0.064,0.736 -0.224,1.312 -1.92,-0.8 -4.288,-0.8 -1.792,0 -2.848,0.704 -1.024,0.672 -1.024,2.016 0,1.28 0.832,2.048 0.864,0.736 2.592,1.28 l 1.28,0.384 q 2.208,0.672 3.2,1.696 0.992,1.024 0.992,2.752 0,1.312 -0.704,2.304 -0.672,0.992 -1.984,1.536 -1.28,0.544 -3.072,0.544 z"
           style="font-style:normal;font-variant:normal;font-weight:300;font-stretch:normal;font-size:32px;font-family:SantanderTextW05-Light;-inkscape-font-specification:'SantanderTextW05-Light Light';fill:#93a7ac"
           id="path98" />
      </g>
      <text
         xml:space="preserve"
         id="text35"
         style="font-style:normal;font-weight:normal;font-size:40px;line-height:1.25;font-family:sans-serif;white-space:pre;shape-inside:url(#rect37);fill:#000000;fill-opacity:1;stroke:none;" />
      <text
         xml:space="preserve"
         id="text41"
         style="font-style:normal;font-weight:normal;font-size:40px;line-height:1.25;font-family:sans-serif;white-space:pre;shape-inside:url(#rect43);fill:#000000;fill-opacity:1;stroke:none;" />
      <text
         xml:space="preserve"
         id="text47"
         style="font-style:normal;font-weight:normal;font-size:40px;line-height:1.25;font-family:sans-serif;white-space:pre;shape-inside:url(#rect49);fill:#000000;fill-opacity:1;stroke:none;" />
    </g>
  </g>
  <style
     type="text/css"
     id="style10">
	.st0{fill:#E20613;}
	.st1{fill:#7B868C;}
	.st2{fill:none;stroke:#7B868C;stroke-width:2;}
</style>
</svg>
