<?xml version="1.0" encoding="UTF-8" standalone="no"?>
<svg
   xmlns:dc="http://purl.org/dc/elements/1.1/"
   xmlns:cc="http://creativecommons.org/ns#"
   xmlns:rdf="http://www.w3.org/1999/02/22-rdf-syntax-ns#"
   xmlns:svg="http://www.w3.org/2000/svg"
   xmlns="http://www.w3.org/2000/svg"
   xmlns:sodipodi="http://sodipodi.sourceforge.net/DTD/sodipodi-0.dtd"
   xmlns:inkscape="http://www.inkscape.org/namespaces/inkscape"
   width="1.7in"
   height="0.5in"
   viewBox="0 0 43.18 12.7"
   version="1.1"
   id="svg8"
   inkscape:version="1.0.1 (c497b03c, 2020-09-10)"
   sodipodi:docname="banner.svg">
  <defs
     id="defs2">
    <rect
       x="-226.48926"
       y="-73.397835"
       width="484.83176"
       height="171.8949"
       id="rect49" />
    <rect
       x="-216.20496"
       y="-108.65833"
       width="659.66504"
       height="265.92288"
       id="rect43" />
    <rect
       x="-157.43747"
       y="-36.668159"
       width="453.97882"
       height="141.04196"
       id="rect37" />
  </defs>
  <sodipodi:namedview
     id="base"
     pagecolor="#ffffff"
     bordercolor="#666666"
     borderopacity="1.0"
     inkscape:pageopacity="0.0"
     inkscape:pageshadow="2"
     inkscape:zoom="4.4"
     inkscape:cx="95.451807"
     inkscape:cy="43.777972"
     inkscape:document-units="mm"
     inkscape:current-layer="text34"
     inkscape:document-rotation="0"
     showgrid="false"
     units="in"
     width="9in"
     inkscape:window-width="1280"
     inkscape:window-height="674"
     inkscape:window-x="20"
     inkscape:window-y="37"
     inkscape:window-maximized="0"
     scale-x="1" />
  <metadata
     id="metadata5">
    <rdf:RDF>
      <cc:Work
         rdf:about="">
        <dc:format>image/svg+xml</dc:format>
        <dc:type
           rdf:resource="http://purl.org/dc/dcmitype/StillImage" />
        <dc:title />
      </cc:Work>
    </rdf:RDF>
  </metadata>
  <g
     inkscape:label="Capa 1"
     inkscape:groupmode="layer"
     id="layer1">
    <g
       id="g18"
       transform="matrix(0.26458333,0,0,0.26458333,101.12986,123.20873)">
      <line
         class="st2"
         x1="-377.69901"
         y1="-464.24411"
         x2="-377.69901"
         y2="-422.2941"
         id="line16" />
      <g
         aria-label="Agile Flags"
         id="text34"
         style="font-style:normal;font-variant:normal;font-weight:bold;font-stretch:normal;font-size:32px;line-height:1.25;font-family:SantanderTextW05-Light;-inkscape-font-specification:'SantanderTextW05-Light Bold';fill:#ff2a2a;fill-opacity:1;stroke:none"
         transform="translate(-243.53493,-27.38661)">
        <path
           d="m -105.58453,-411.08961 h -9.632 l -2.016,6.08 h -1.536 l 7.456,-22.048 q 0.288,-0.096 0.832,-0.16 0.544,-0.064 0.992,-0.064 l 7.552,22.272 h -1.632 z m -0.448,-1.408 -4.352,-13.088 -4.352,13.088 z"
           style="font-style:normal;font-variant:normal;font-weight:300;font-stretch:normal;font-size:32px;font-family:SantanderTextW05-Light;-inkscape-font-specification:'SantanderTextW05-Light Light';fill:#ff2a2a"
           id="path80" />
        <path
           d="m -92.441032,-421.20161 q 2.912,0 5.12,1.024 v 15.456 q 0,3.456 -1.856,5.152 -1.856,1.728 -5.088,1.728 -2.272,0 -4.224,-0.864 0.064,-0.832 0.16,-1.376 0.928,0.448 1.984,0.672 1.088,0.224 2.048,0.224 2.464,0 3.936,-1.312 1.504,-1.28 1.504,-4.064 v -2.624 q -0.896,1.28 -2.016,1.92 -1.088,0.64 -2.656,0.64 -1.984,0 -3.392,-0.928 -1.408,-0.928 -2.176,-2.72 -0.736,-1.824 -0.736,-4.416 0,-4.16 1.824,-6.336 1.856,-2.176 5.568,-2.176 z m -0.704,15.264 q 1.312,0 2.368,-0.544 1.056,-0.544 1.92,-1.6 v -11.168 q -1.664,-0.64 -3.552,-0.64 -2.976,0 -4.416,1.856 -1.44,1.824 -1.44,5.28 0,3.296 1.312,5.056 1.312,1.76 3.808,1.76 z"
           style="font-style:normal;font-variant:normal;font-weight:300;font-stretch:normal;font-size:32px;font-family:SantanderTextW05-Light;-inkscape-font-specification:'SantanderTextW05-Light Light';fill:#ff2a2a"
           id="path82" />
        <path
           d="m -81.071532,-424.97761 q -0.48,0 -0.8,-0.32 -0.288,-0.32 -0.288,-0.832 0,-0.512 0.288,-0.832 0.32,-0.32 0.8,-0.32 0.512,0 0.8,0.32 0.32,0.32 0.32,0.832 0,0.512 -0.32,0.832 -0.288,0.32 -0.8,0.32 z m -0.768,4.16 h 1.536 v 15.808 h -1.536 z"
           style="font-style:normal;font-variant:normal;font-weight:300;font-stretch:normal;font-size:32px;font-family:SantanderTextW05-Light;-inkscape-font-specification:'SantanderTextW05-Light Light';fill:#ff2a2a"
           id="path84" />
        <path
           d="m -71.447532,-404.65761 q -1.696,0 -2.624,-0.96 -0.928,-0.96 -0.928,-2.88 v -18.656 q 0.672,-0.256 1.536,-0.256 v 18.784 q 0,1.312 0.608,1.984 0.64,0.672 1.824,0.672 0.928,0 1.792,-0.384 -0.064,0.768 -0.192,1.344 -0.992,0.352 -2.016,0.352 z"
           style="font-style:normal;font-variant:normal;font-weight:300;font-stretch:normal;font-size:32px;font-family:SantanderTextW05-Light;-inkscape-font-specification:'SantanderTextW05-Light Light';fill:#ff2a2a"
           id="path86" />
        <path
           d="m -54.818032,-414.16161 q 0,1.152 -0.096,1.632 h -11.136 q 0.128,3.328 1.664,4.96 1.536,1.632 4.224,1.632 1.152,0 2.4,-0.32 1.248,-0.352 2.304,-1.12 -0.032,0.352 -0.096,0.8 -0.064,0.448 -0.16,0.704 -0.96,0.64 -2.144,0.928 -1.184,0.32 -2.368,0.32 -2.368,0 -4.032,-0.96 -1.632,-0.992 -2.496,-2.848 -0.864,-1.888 -0.864,-4.576 0,-2.368 0.736,-4.224 0.736,-1.856 2.208,-2.912 1.504,-1.056 3.744,-1.056 2.016,0 3.392,0.896 1.376,0.896 2.048,2.496 0.672,1.568 0.672,3.648 z m -6.144,-5.728 q -2.336,0 -3.616,1.632 -1.28,1.632 -1.44,4.448 h 9.664 v -0.384 q 0,-2.592 -1.184,-4.128 -1.152,-1.568 -3.424,-1.568 z"
           style="font-style:normal;font-variant:normal;font-weight:300;font-stretch:normal;font-size:32px;font-family:SantanderTextW05-Light;-inkscape-font-specification:'SantanderTextW05-Light Light';fill:#ff2a2a"
           id="path88" />
        <path
           d="m -25.34185,-421.65616 q 2.752,0 4.096,1.248 1.344,1.248 1.344,3.904 v 11.04 h -1.44 l -0.096,-2.4 q -0.736,1.216 -2.112,2.016 -1.344,0.768 -3.104,0.768 -1.504,0 -2.624,-0.544 -1.12,-0.576 -1.728,-1.6 -0.576,-1.024 -0.576,-2.4 0,-1.728 0.896,-2.944 0.896,-1.248 2.976,-1.984 2.112,-0.768 5.632,-1.024 l 0.64,-0.032 v -0.832 q 0,-2.08 -0.992,-2.976 -0.992,-0.928 -3.072,-0.928 -1.536,0 -2.816,0.352 -1.28,0.352 -2.432,0.992 0,-0.48 0.128,-1.376 2.304,-1.28 5.28,-1.28 z m -1.056,15.296 q 1.504,0 2.848,-0.672 1.376,-0.704 2.112,-1.76 v -5.632 l -0.576,0.032 q -3.104,0.256 -4.896,0.896 -1.76,0.608 -2.464,1.536 -0.672,0.928 -0.672,2.24 0,1.504 0.96,2.432 0.96,0.928 2.688,0.928 z"
           style="font-style:normal;font-variant:normal;font-weight:300;font-stretch:normal;font-size:32px;font-family:SantanderTextW05-Light;-inkscape-font-specification:'SantanderTextW05-Light Light';fill:#ff2a2a"
           id="path94" />
        <path
           d="m -8.3728505,-421.65616 q 2.912,0 5.12,1.024 v 15.456 q 0,3.456 -1.856,5.152 -1.856,1.728 -5.0879995,1.728 -2.272,0 -4.224,-0.864 0.064,-0.832 0.16,-1.376 0.928,0.448 1.984,0.672 1.088,0.224 2.048,0.224 2.4639995,0 3.9359995,-1.312 1.504,-1.28 1.504,-4.064 v -2.624 q -0.896,1.28 -2.016,1.92 -1.088,0.64 -2.656,0.64 -1.9839995,0 -3.3919995,-0.928 -1.408,-0.928 -2.176,-2.72 -0.736,-1.824 -0.736,-4.416 0,-4.16 1.824,-6.336 1.856,-2.176 5.5679995,-2.176 z m -0.704,15.264 q 1.312,0 2.368,-0.544 1.056,-0.544 1.92,-1.6 v -11.168 q -1.664,-0.64 -3.552,-0.64 -2.9759995,0 -4.4159995,1.856 -1.44,1.824 -1.44,5.28 0,3.296 1.312,5.056 1.312,1.76 3.8079995,1.76 z"
           style="font-style:normal;font-variant:normal;font-weight:300;font-stretch:normal;font-size:32px;font-family:SantanderTextW05-Light;-inkscape-font-specification:'SantanderTextW05-Light Light';fill:#ff2a2a"
           id="path96" />
        <path
           d="m 5.9406497,-405.08016 q -1.28,0 -2.624,-0.32 -1.312,-0.32 -2.272,-0.928 0.032,-0.64 0.256,-1.344 0.992,0.64 2.24,0.96 1.28,0.32 2.336,0.32 1.984,0 3.104,-0.768 1.1520003,-0.768 1.1520003,-2.176 0,-1.312 -0.8000003,-2.048 -0.768,-0.736 -2.56,-1.28 l -1.248,-0.384 q -2.048,-0.608 -3.168,-1.664 -1.088,-1.056 -1.088,-2.848 0,-1.984 1.408,-3.04 1.44,-1.056 3.904,-1.056 2.496,0 4.6080003,0.8 -0.064,0.736 -0.224,1.312 -1.9200003,-0.8 -4.2880003,-0.8 -1.792,0 -2.848,0.704 -1.024,0.672 -1.024,2.016 0,1.28 0.832,2.048 0.864,0.736 2.592,1.28 l 1.28,0.384 q 2.208,0.672 3.2000003,1.696 0.992,1.024 0.992,2.752 0,1.312 -0.704,2.304 -0.672,0.992 -1.9840003,1.536 -1.28,0.544 -3.072,0.544 z"
           style="font-style:normal;font-variant:normal;font-weight:300;font-stretch:normal;font-size:32px;font-family:SantanderTextW05-Light;-inkscape-font-specification:'SantanderTextW05-Light Light';fill:#ff2a2a"
           id="path98" />
        <text
           xml:space="preserve"
           style="font-style:normal;font-variant:normal;font-weight:normal;font-stretch:normal;font-size:32px;line-height:0;font-family:SantanderTextW05-Light;-inkscape-font-specification:SantanderTextW05-Light;fill:#ff0000;fill-opacity:1;stroke:none"
           x="-45.960899"
           y="-404.64783"
           id="text75"><tspan
             sodipodi:role="line"
             id="tspan73"
             x="-45.960899"
             y="-404.64783"
             style="font-style:normal;font-variant:normal;font-weight:normal;font-stretch:normal;font-size:32px;line-height:0.05;font-family:SantanderTextW05-Light;-inkscape-font-specification:SantanderTextW05-Light;fill:#ff0000">T</tspan></text>
      </g>
      <text
         xml:space="preserve"
         id="text35"
         style="font-style:normal;font-weight:normal;font-size:40px;line-height:1.25;font-family:sans-serif;white-space:pre;shape-inside:url(#rect37);fill:#000000;fill-opacity:1;stroke:none;" />
      <text
         xml:space="preserve"
         id="text41"
         style="font-style:normal;font-weight:normal;font-size:40px;line-height:1.25;font-family:sans-serif;white-space:pre;shape-inside:url(#rect43);fill:#000000;fill-opacity:1;stroke:none;" />
      <text
         xml:space="preserve"
         id="text47"
         style="font-style:normal;font-weight:normal;font-size:40px;line-height:1.25;font-family:sans-serif;white-space:pre;shape-inside:url(#rect49);fill:#000000;fill-opacity:1;stroke:none;" />
    </g>
  </g>
  <style
     type="text/css"
     id="style10">
	.st0{fill:#E20613;}
	.st1{fill:#7B868C;}
	.st2{fill:none;stroke:#7B868C;stroke-width:2;}
</style>
</svg>
