<?xml version="1.0" encoding="UTF-8" standalone="no"?>
<svg
   xmlns:dc="http://purl.org/dc/elements/1.1/"
   xmlns:cc="http://creativecommons.org/ns#"
   xmlns:rdf="http://www.w3.org/1999/02/22-rdf-syntax-ns#"
   xmlns:svg="http://www.w3.org/2000/svg"
   xmlns="http://www.w3.org/2000/svg"
   xmlns:sodipodi="http://sodipodi.sourceforge.net/DTD/sodipodi-0.dtd"
   xmlns:inkscape="http://www.inkscape.org/namespaces/inkscape"
   width="4.5in"
   height="1in"
   viewBox="0 0 114.29999 25.4"
   version="1.1"
   id="svg8"
   inkscape:version="1.0.1 (c497b03c, 2020-09-10)"
   sodipodi:docname="dibujo.svg">
  <defs
     id="defs2">
    <rect
       x="-226.48926"
       y="-73.397835"
       width="484.83176"
       height="171.8949"
       id="rect49" />
    <rect
       x="-216.20496"
       y="-108.65833"
       width="659.66504"
       height="265.92288"
       id="rect43" />
    <rect
       x="-157.43747"
       y="-36.668159"
       width="453.97882"
       height="141.04196"
       id="rect37" />
  </defs>
  <sodipodi:namedview
     id="base"
     pagecolor="#ffffff"
     bordercolor="#666666"
     borderopacity="1.0"
     inkscape:pageopacity="0.0"
     inkscape:pageshadow="2"
     inkscape:zoom="2.1335655"
     inkscape:cx="269.01791"
     inkscape:cy="41.792886"
     inkscape:document-units="mm"
     inkscape:current-layer="g18"
     inkscape:document-rotation="0"
     showgrid="false"
     units="in"
     width="9in"
     inkscape:window-width="1280"
     inkscape:window-height="800"
     inkscape:window-x="0"
     inkscape:window-y="0"
     inkscape:window-maximized="0" />
  <metadata
     id="metadata5">
    <rdf:RDF>
      <cc:Work
         rdf:about="">
        <dc:format>image/svg+xml</dc:format>
        <dc:type
           rdf:resource="http://purl.org/dc/dcmitype/StillImage" />
        <dc:title></dc:title>
      </cc:Work>
    </rdf:RDF>
  </metadata>
  <g
     inkscape:label="Capa 1"
     inkscape:groupmode="layer"
     id="layer1">
    <g
       id="g18"
       transform="matrix(0.26458333,0,0,0.26458333,101.12986,123.20873)">
      <path
         class="st0"
         d="m -150.54411,-422.60743 c 0,1.17 -0.14,2.58 -0.35,3.32 -0.92,-0.11 -1.83,-0.14 -2.93,-0.14 -0.95,0 -1.91,0.07 -2.86,0.21 v 15.11 h -3.88 v -17.66 c 1.66,-0.56 4.45,-0.99 6.64,-0.99 1.19,0 2.53,0.04 3.38,0.15 m -26.06,7.69 h 8.76 c 0,-2.9 -1.55,-4.59 -4.24,-4.59 -2.75,0 -4.2,1.59 -4.52,4.59 m 12.47,3.25 h -12.39 c 0.49,3.14 2.33,4.66 5.79,4.66 2.12,0 4.27,-0.46 6.21,-1.34 -0.14,1.02 -0.35,2.37 -0.6,3.53 -1.76,0.81 -3.64,1.13 -5.72,1.13 -6.5,0 -9.64,-3.6 -9.64,-9.64 0,-5.26 2.44,-9.43 8.61,-9.43 5.54,0 7.95,3.64 7.95,8.09 0,1.09 -0.07,1.98 -0.21,3 m -23.38,3.46 v -10.87 c -1.02,-0.21 -2.08,-0.35 -3.11,-0.35 -3.85,0 -5.68,2.4 -5.68,6.43 0,3.6 1.45,6.14 4.91,6.14 1.55,-0.01 2.82,-0.54 3.88,-1.35 m 3.85,-20.62 v 24.72 h -3.57 l -0.21,-2.26 c -0.99,1.66 -2.51,2.68 -5.05,2.68 -4.66,0 -7.77,-3.39 -7.77,-9.32 0,-6.21 3.32,-9.74 9.85,-9.74 1.02,0 1.98,0.11 2.9,0.28 v -5.83 c 1.2,-0.42 2.58,-0.53 3.85,-0.53 m -19.7,12.85 v 11.86 h -3.88 v -11.19 c 0,-2.79 -0.92,-4.13 -4.8,-4.13 -0.92,0 -2.01,0.11 -3.07,0.28 v 15.04 h -3.88 v -17.65 c 2.47,-0.6 5.19,-0.99 7.06,-0.99 6.48,0 8.57,2.51 8.57,6.78 m -23.77,7.84 v -11.08 c -0.81,-0.14 -1.7,-0.21 -2.79,-0.21 -4.03,0 -5.9,2.47 -5.9,6.43 0,3.6 1.45,6.14 4.91,6.14 1.52,-0.01 2.76,-0.5 3.78,-1.28 m 3.89,-13.63 v 17.65 h -3.57 l -0.21,-2.12 c -0.99,1.55 -2.51,2.54 -4.98,2.54 -4.66,0 -7.77,-3.39 -7.77,-9.32 0,-6.21 3.32,-9.74 9.85,-9.74 2.55,0 4.63,0.29 6.68,0.99 m -20.84,14.76 c 1.13,0 2.19,-0.21 3.04,-0.53 -0.11,1.06 -0.25,2.26 -0.46,3.28 -1.06,0.42 -2.19,0.56 -3.28,0.56 -3.78,0 -6.18,-1.73 -6.18,-6.04 v -18.52 c 1.2,-0.39 2.68,-0.56 3.88,-0.56 v 6.67 h 6.14 c -0.07,1.2 -0.18,2.3 -0.35,3.32 h -5.79 v 8.65 c 0,2.29 1.13,3.17 3,3.17 m -10.77,-8.97 v 11.86 h -3.88 v -11.19 c 0,-2.79 -0.92,-4.13 -4.8,-4.13 -0.92,0 -2.01,0.11 -3.07,0.28 v 15.04 h -3.88 v -17.65 c 2.47,-0.6 5.19,-0.99 7.06,-0.99 6.49,0 8.57,2.51 8.57,6.78 m -23.76,7.84 v -11.08 c -0.81,-0.14 -1.69,-0.21 -2.79,-0.21 -4.02,0 -5.9,2.47 -5.9,6.43 0,3.6 1.45,6.14 4.91,6.14 1.52,-0.01 2.76,-0.5 3.78,-1.28 m 3.88,-13.63 v 17.65 h -3.57 l -0.21,-2.12 c -0.99,1.55 -2.51,2.54 -4.98,2.54 -4.66,0 -7.77,-3.39 -7.77,-9.32 0,-6.21 3.32,-9.74 9.85,-9.74 2.55,0 4.64,0.29 6.68,0.99 m -35.27,16.88 c 0.07,-1.45 0.28,-2.44 0.67,-3.57 1.98,0.92 4.52,1.38 6.46,1.38 3.28,0 5.12,-1.06 5.12,-3.14 0,-2.05 -1.34,-3 -4.66,-4.45 l -1.8,-0.78 c -3.32,-1.45 -5.58,-3.32 -5.58,-7.06 0,-4.02 2.79,-6.6 8.51,-6.6 2.29,0 4.45,0.32 6.46,1.02 -0.11,1.41 -0.35,2.51 -0.71,3.53 -1.91,-0.71 -4.17,-1.02 -5.79,-1.02 -3.07,0 -4.48,1.2 -4.48,3.07 0,1.84 1.38,2.9 3.85,3.96 l 1.91,0.81 c 4.48,1.91 6.36,3.92 6.36,7.34 0,4.06 -3.07,6.85 -9.07,6.85 -2.91,0 -5.27,-0.42 -7.25,-1.34 m -17.75,-17.41 c -0.06,-1.29 -0.42,-2.57 -1.08,-3.72 l -5.89,-10.19 c -0.45,-0.78 -0.76,-1.61 -0.93,-2.47 l -0.25,0.43 c -1.46,2.52 -1.46,5.63 0,8.15 l 4.71,8.16 c 1.46,2.52 1.46,5.63 0,8.16 l -0.25,0.43 c -0.17,-0.85 -0.48,-1.69 -0.93,-2.47 l -4.31,-7.47 -2.75,-4.77 c -0.45,-0.78 -0.76,-1.61 -0.93,-2.47 l -0.25,0.43 c -1.45,2.52 -1.46,5.61 -0.01,8.13 v 0 l 4.72,8.18 c 1.46,2.52 1.46,5.63 0,8.16 l -0.25,0.43 c -0.17,-0.85 -0.48,-1.69 -0.93,-2.47 l -5.89,-10.19 c -0.79,-1.37 -1.15,-2.91 -1.08,-4.43 -6.3,1.65 -10.65,5.14 -10.65,9.19 0,5.63 8.42,10.19 18.8,10.19 10.38,0 18.8,-4.56 18.8,-10.19 0,-4.05 -4.35,-7.55 -10.65,-9.2"
         id="path12" />
      <line
         class="st2"
         x1="-134.16408"
         y1="-436.85748"
         x2="-134.16408"
         y2="-394.90747"
         id="line16" />
      <text
         xml:space="preserve"
         style="font-style:normal;font-variant:normal;font-weight:bold;font-stretch:normal;font-size:32px;line-height:1.25;font-family:SantanderTextW05-Light;-inkscape-font-specification:'SantanderTextW05-Light Bold';fill:#000000;fill-opacity:1;stroke:none"
         x="-119.18453"
         y="-405.00961"
         id="text34"><tspan
           sodipodi:role="line"
           id="tspan32"
           x="-119.18453"
           y="-405.00961"
           style="font-style:normal;font-variant:normal;font-weight:300;font-stretch:normal;font-size:32px;font-family:SantanderTextW05-Light;-inkscape-font-specification:'SantanderTextW05-Light Light';fill:#93a7ac">Agile Flags</tspan></text>
      <text
         xml:space="preserve"
         id="text35"
         style="font-style:normal;font-weight:normal;font-size:40px;line-height:1.25;font-family:sans-serif;white-space:pre;shape-inside:url(#rect37);fill:#000000;fill-opacity:1;stroke:none;" />
      <text
         xml:space="preserve"
         id="text41"
         style="font-style:normal;font-weight:normal;font-size:40px;line-height:1.25;font-family:sans-serif;white-space:pre;shape-inside:url(#rect43);fill:#000000;fill-opacity:1;stroke:none;" />
      <text
         xml:space="preserve"
         id="text47"
         style="font-style:normal;font-weight:normal;font-size:40px;line-height:1.25;font-family:sans-serif;white-space:pre;shape-inside:url(#rect49);fill:#000000;fill-opacity:1;stroke:none;" />
    </g>
  </g>
  <style
     type="text/css"
     id="style10">
	.st0{fill:#E20613;}
	.st1{fill:#7B868C;}
	.st2{fill:none;stroke:#7B868C;stroke-width:2;}
</style>
</svg>
