<?xml version="1.0" encoding="utf-8"?>
<!-- Generator: Adobe Illustrator 23.0.6, SVG Export Plug-In . SVG Version: 6.00 Build 0)  -->
<svg version="1.1" id="Capa_1" xmlns="http://www.w3.org/2000/svg" xmlns:xlink="http://www.w3.org/1999/xlink" x="0px" y="0px"
	 viewBox="0 0 382.68 85.04" style="enable-background:new 0 0 382.68 85.04;" xml:space="preserve">
<style type="text/css">
	.st0{fill:#E20613;}
	.st1{fill:#7B868C;}
	.st2{fill:none;stroke:#7B868C;stroke-width:2;}
</style>
<g>
	<path class="st0" d="M227.94,34.92c0,1.17-0.14,2.58-0.35,3.32c-0.92-0.11-1.83-0.14-2.93-0.14c-0.95,0-1.91,0.07-2.86,0.21v15.11
		h-3.88V35.76c1.66-0.56,4.45-0.99,6.64-0.99C225.75,34.77,227.09,34.81,227.94,34.92 M201.88,42.61h8.76c0-2.9-1.55-4.59-4.24-4.59
		C203.65,38.02,202.2,39.61,201.88,42.61 M214.35,45.86h-12.39c0.49,3.14,2.33,4.66,5.79,4.66c2.12,0,4.27-0.46,6.21-1.34
		c-0.14,1.02-0.35,2.37-0.6,3.53c-1.76,0.81-3.64,1.13-5.72,1.13c-6.5,0-9.64-3.6-9.64-9.64c0-5.26,2.44-9.43,8.61-9.43
		c5.54,0,7.95,3.64,7.95,8.09C214.56,43.95,214.49,44.84,214.35,45.86 M190.97,49.32V38.45c-1.02-0.21-2.08-0.35-3.11-0.35
		c-3.85,0-5.68,2.4-5.68,6.43c0,3.6,1.45,6.14,4.91,6.14C188.64,50.66,189.91,50.13,190.97,49.32 M194.82,28.7v24.72h-3.57
		l-0.21-2.26c-0.99,1.66-2.51,2.68-5.05,2.68c-4.66,0-7.77-3.39-7.77-9.32c0-6.21,3.32-9.74,9.85-9.74c1.02,0,1.98,0.11,2.9,0.28
		v-5.83C192.17,28.81,193.55,28.7,194.82,28.7 M175.12,41.55v11.86h-3.88V42.22c0-2.79-0.92-4.13-4.8-4.13
		c-0.92,0-2.01,0.11-3.07,0.28v15.04h-3.88V35.76c2.47-0.6,5.19-0.99,7.06-0.99C173.03,34.77,175.12,37.28,175.12,41.55
		 M151.35,49.39V38.31c-0.81-0.14-1.7-0.21-2.79-0.21c-4.03,0-5.9,2.47-5.9,6.43c0,3.6,1.45,6.14,4.91,6.14
		C149.09,50.66,150.33,50.17,151.35,49.39 M155.24,35.76v17.65h-3.57l-0.21-2.12c-0.99,1.55-2.51,2.54-4.98,2.54
		c-4.66,0-7.77-3.39-7.77-9.32c0-6.21,3.32-9.74,9.85-9.74C151.11,34.77,153.19,35.06,155.24,35.76 M134.4,50.52
		c1.13,0,2.19-0.21,3.04-0.53c-0.11,1.06-0.25,2.26-0.46,3.28c-1.06,0.42-2.19,0.56-3.28,0.56c-3.78,0-6.18-1.73-6.18-6.04V29.27
		c1.2-0.39,2.68-0.56,3.88-0.56v6.67h6.14c-0.07,1.2-0.18,2.3-0.35,3.32h-5.79v8.65C131.4,49.64,132.53,50.52,134.4,50.52
		 M123.63,41.55v11.86h-3.88V42.22c0-2.79-0.92-4.13-4.8-4.13c-0.92,0-2.01,0.11-3.07,0.28v15.04h-3.88V35.76
		c2.47-0.6,5.19-0.99,7.06-0.99C121.55,34.77,123.63,37.28,123.63,41.55 M99.87,49.39V38.31c-0.81-0.14-1.69-0.21-2.79-0.21
		c-4.02,0-5.9,2.47-5.9,6.43c0,3.6,1.45,6.14,4.91,6.14C97.61,50.66,98.85,50.17,99.87,49.39 M103.75,35.76v17.65h-3.57l-0.21-2.12
		c-0.99,1.55-2.51,2.54-4.98,2.54c-4.66,0-7.77-3.39-7.77-9.32c0-6.21,3.32-9.74,9.85-9.74C99.62,34.77,101.71,35.06,103.75,35.76
		 M68.48,52.64c0.07-1.45,0.28-2.44,0.67-3.57c1.98,0.92,4.52,1.38,6.46,1.38c3.28,0,5.12-1.06,5.12-3.14c0-2.05-1.34-3-4.66-4.45
		l-1.8-0.78c-3.32-1.45-5.58-3.32-5.58-7.06c0-4.02,2.79-6.6,8.51-6.6c2.29,0,4.45,0.32,6.46,1.02c-0.11,1.41-0.35,2.51-0.71,3.53
		c-1.91-0.71-4.17-1.02-5.79-1.02c-3.07,0-4.48,1.2-4.48,3.07c0,1.84,1.38,2.9,3.85,3.96l1.91,0.81c4.48,1.91,6.36,3.92,6.36,7.34
		c0,4.06-3.07,6.85-9.07,6.85C72.82,53.98,70.46,53.56,68.48,52.64 M50.73,35.23c-0.06-1.29-0.42-2.57-1.08-3.72l-5.89-10.19
		c-0.45-0.78-0.76-1.61-0.93-2.47l-0.25,0.43c-1.46,2.52-1.46,5.63,0,8.15l4.71,8.16c1.46,2.52,1.46,5.63,0,8.16l-0.25,0.43
		c-0.17-0.85-0.48-1.69-0.93-2.47l-4.31-7.47l-2.75-4.77c-0.45-0.78-0.76-1.61-0.93-2.47l-0.25,0.43c-1.45,2.52-1.46,5.61-0.01,8.13
		v0l4.72,8.18c1.46,2.52,1.46,5.63,0,8.16l-0.25,0.43c-0.17-0.85-0.48-1.69-0.93-2.47l-5.89-10.19c-0.79-1.37-1.15-2.91-1.08-4.43
		c-6.3,1.65-10.65,5.14-10.65,9.19c0,5.63,8.42,10.19,18.8,10.19c10.38,0,18.8-4.56,18.8-10.19C61.38,40.38,57.03,36.88,50.73,35.23
		"/>
	<path class="st1" d="M351.89,40.98v-9.97c0.79-0.1,1.69-0.14,2.7-0.14c1.9,0,3.34,0.43,4.34,1.3c1,0.86,1.49,2.12,1.49,3.78
		c0,1.73-0.5,3-1.51,3.81c-1.01,0.82-2.38,1.22-4.1,1.22H351.89z M361.36,53.54h3.63l-6.3-10.47c1.51-0.55,2.72-1.44,3.62-2.66
		c0.9-1.22,1.35-2.76,1.35-4.61c0-1.39-0.31-2.66-0.94-3.81c-0.62-1.15-1.61-2.08-2.97-2.77c-1.36-0.7-3.07-1.04-5.13-1.04
		c-2.06,0-4.03,0.2-5.9,0.61v24.8h3.17v-9.9h3.92L361.36,53.54z M339.51,28.89v10.51h-10.94V28.38c-0.48,0-1.01,0.05-1.6,0.14
		c-0.59,0.1-1.11,0.22-1.57,0.36v24.69h3.17V42.31h10.94v11.26h3.13V28.38c-0.48,0-1.02,0.05-1.62,0.14
		C340.42,28.62,339.92,28.74,339.51,28.89 M312.91,38.75c2.27,0,3.27,1.48,3.31,4.14h-6.84C309.67,40.15,310.86,38.75,312.91,38.75
		 M320.72,43.21c0-4.53-2.34-8.03-7.7-8.03c-5.61,0-8.24,3.92-8.24,9.25c0,5.9,2.81,9.57,9.25,9.57c2.12,0,4.03-0.36,5.61-1.15
		c0.25-1.08,0.47-2.59,0.58-3.78c-1.76,0.86-3.67,1.33-5.61,1.33c-3.13,0-4.75-1.08-5.18-4.21h11.12
		C320.65,45.51,320.72,44.22,320.72,43.21 M293.73,35.18c-2.45,0-5.04,0.47-7.31,1.15v17.24h4.61V39.11
		c0.83-0.18,1.69-0.29,2.59-0.29c2.45,0,3.38,1.01,3.38,3.38v11.37h4.61V41.7C301.61,37.81,299.74,35.18,293.73,35.18 M271.67,50.16
		c-4.25,0-6.44-3.13-6.44-9.03c0-5.94,2.16-9.03,6.41-9.03c4.21,0,6.41,3.13,6.41,9.03C278.04,47.13,275.92,50.16,271.67,50.16
		 M271.67,54.19c7.09,0,11.19-4.79,11.19-13.06c0-8.03-3.92-13.06-11.23-13.06c-7.16,0-11.23,4.9-11.23,13.06
		C260.4,49.18,264.33,54.19,271.67,54.19"/>
	<line class="st2" x1="244.32" y1="20.67" x2="244.32" y2="62.62"/>
</g>
</svg>
